<?xml version="1.0" encoding="utf-8"?>
<!-- Generated by IcoMoon.io -->
<!DOCTYPE svg PUBLIC "-//W3C//DTD SVG 1.1//EN" "http://www.w3.org/Graphics/SVG/1.1/DTD/svg11.dtd">
<svg version="1.1" xmlns="http://www.w3.org/2000/svg" xmlns:xlink="http://www.w3.org/1999/xlink" width="768" height="768" viewBox="0 0 768 768">
<g id="icomoon-ignore">
</g>
<path d="M384 32q71.75 0 136.875 27.875t112.25 75 75 112.25 27.875 136.875-27.875 136.875-75 112.25-112.25 75-136.875 27.875-136.875-27.875-112.25-75-75-112.25-27.875-136.875 27.875-136.875 75-112.25 112.25-75 136.875-27.875zM384 96q-58.5 0-111.875 22.875t-91.875 61.375-61.375 91.875-22.875 111.875 22.875 111.875 61.375 91.875 91.875 61.375 111.875 22.875 111.875-22.875 91.875-61.375 61.375-91.875 22.875-111.875-22.875-111.875-61.375-91.875-91.875-61.375-111.875-22.875zM256 352h256q13.25 0 22.625 9.375t9.375 22.625-9.375 22.625-22.625 9.375h-256q-13.25 0-22.625-9.375t-9.375-22.625 9.375-22.625 22.625-9.375z"></path>
</svg>
