<?xml version="1.0" encoding="utf-8"?>
<!-- Generated by IcoMoon.io -->
<!DOCTYPE svg PUBLIC "-//W3C//DTD SVG 1.1//EN" "http://www.w3.org/Graphics/SVG/1.1/DTD/svg11.dtd">
<svg version="1.1" xmlns="http://www.w3.org/2000/svg" xmlns:xlink="http://www.w3.org/1999/xlink" width="768" height="768" viewBox="0 0 768 768">
<g id="icomoon-ignore">
</g>
<path d="M608 128q13.75 0 22.875 9.125t9.125 22.875q0 13.5-9.25 22.75l-201.5 201.25 201.5 201.25q9.25 9.25 9.25 22.75 0 13.75-9.125 22.875t-22.875 9.125q-13.5 0-22.75-9.25l-201.25-201.5-201.25 201.5q-9.25 9.25-22.75 9.25-13.75 0-22.875-9.125t-9.125-22.875q0-13.5 9.25-22.75l201.5-201.25-201.5-201.25q-9.25-9.25-9.25-22.75 0-13.75 9.125-22.875t22.875-9.125q13.5 0 22.75 9.25l201.25 201.5 201.25-201.5q9.25-9.25 22.75-9.25z"></path>
</svg>
