<?xml version="1.0" encoding="utf-8"?>
<!-- Generated by IcoMoon.io -->
<!DOCTYPE svg PUBLIC "-//W3C//DTD SVG 1.1//EN" "http://www.w3.org/Graphics/SVG/1.1/DTD/svg11.dtd">
<svg version="1.1" xmlns="http://www.w3.org/2000/svg" xmlns:xlink="http://www.w3.org/1999/xlink" width="768" height="768" viewBox="0 0 768 768">
<g id="icomoon-ignore">
</g>
<path d="M608 256h-75.264c7.008-14.624 11.264-30.752 11.264-48 0-61.76-50.24-112-112-112-31.328 0-59.648 13.024-80 33.856-20.352-20.832-48.672-33.856-80-33.856-61.76 0-112 50.24-112 112 0 17.248 4.256 33.376 11.264 48h-75.264c-17.696 0-32 14.336-32 32v128c0 17.664 14.304 32 32 32v160c0 52.928 43.072 96 96 96h320c52.928 0 96-43.072 96-96v-160c17.696 0 32-14.336 32-32v-128c0-17.664-14.304-32-32-32zM576 384h-160v-64h160v64zM320 224h64v32h-64v-32zM384 320v64h-64v-64h64zM432 160c26.464 0 48 21.536 48 48s-21.536 48-48 48c-5.664 0-11.008-1.248-16-3.104v-28.896c0-16.672-12.928-29.984-29.216-31.424 6.464-18.88 24.192-32.576 45.216-32.576zM224 208c0-26.464 21.536-48 48-48 21.024 0 38.752 13.696 45.216 32.576-16.288 1.44-29.216 14.752-29.216 31.424v28.896c-4.992 1.856-10.336 3.104-16 3.104-26.464 0-48-21.536-48-48zM288 320v64h-160v-64h160zM192 640c-17.632 0-32-14.368-32-32v-192h128v224h-96zM320 640v-224h64v224h-64zM512 640h-96v-224h128v192c0 17.632-14.368 32-32 32z"></path>
</svg>
