<?xml version="1.0" encoding="utf-8"?>
<!-- Generated by IcoMoon.io -->
<!DOCTYPE svg PUBLIC "-//W3C//DTD SVG 1.1//EN" "http://www.w3.org/Graphics/SVG/1.1/DTD/svg11.dtd">
<svg version="1.1" xmlns="http://www.w3.org/2000/svg" xmlns:xlink="http://www.w3.org/1999/xlink" width="1024" height="1024" viewBox="0 0 1024 1024">
<g id="icomoon-ignore">
</g>
<path d="M486.4 972.8c-4.301 0-8.55-1.075-12.442-3.226-4.813-2.662-119.091-66.611-235.11-171.366-68.659-61.952-123.443-125.338-162.97-188.416-50.381-80.435-75.878-160.717-75.878-238.592 0-148.224 120.576-268.8 268.8-268.8 50.176 0 103.475 18.79 150.067 52.941 27.238 19.968 50.432 44.032 67.533 69.581 17.101-25.549 40.294-49.613 67.533-69.581 46.592-34.15 99.891-52.941 150.067-52.941 148.224 0 268.8 120.576 268.8 268.8 0 77.875-25.549 158.157-75.878 238.592-39.475 63.078-94.31 126.464-162.918 188.416-116.019 104.755-230.298 168.704-235.11 171.366-3.891 2.15-8.141 3.226-12.442 3.226zM268.8 153.6c-119.962 0-217.6 97.638-217.6 217.6 0 155.648 120.32 297.062 221.235 388.352 90.112 81.51 181.453 138.65 213.965 158.054 32.512-19.405 123.853-76.544 213.965-158.054 100.915-91.238 221.235-232.704 221.235-388.352 0-119.962-97.638-217.6-217.6-217.6-87.194 0-171.878 71.731-193.331 136.090-3.482 10.445-13.261 17.51-24.269 17.51s-20.787-7.066-24.269-17.51c-21.453-64.358-106.138-136.090-193.331-136.090z"></path>
</svg>
