<?xml version="1.0" encoding="utf-8"?>
<!-- Generated by IcoMoon.io -->
<!DOCTYPE svg PUBLIC "-//W3C//DTD SVG 1.1//EN" "http://www.w3.org/Graphics/SVG/1.1/DTD/svg11.dtd">
<svg version="1.1" xmlns="http://www.w3.org/2000/svg" xmlns:xlink="http://www.w3.org/1999/xlink" width="768" height="768" viewBox="0 0 768 768">
<g id="icomoon-ignore">
</g>
<path d="M544 160c-24.16 0-46.016 9.248-62.88 24.032-2.048-1.984-3.712-4.48-6.016-6.144-30.72-23.584-117.28-49.888-187.104-49.888-60.128 0-83.424 9.376-104.064 17.664-3.296 1.344-6.624 2.72-10.112 3.968-26.688 9.76-50.496 39.328-55.616 70.4l-21.248 191.104c-5.568 33.248 14.112 68.064 44.8 79.296 12.608 4.608 80.384 12.96 124.256 17.92-6.88 40.192-9.984 76.96-9.984 115.712 0 44.128 35.872 80 80 80s80-35.872 80-80c0-60 21.344-87.584 51.712-118.368 17.536 23.168 45.056 38.368 76.288 38.368 52.896 0 95.968-43.104 95.968-96v-192c-0.032-52.992-43.072-96.064-96-96.064zM352 624c0 8.8-7.2 16-16 16s-16-7.2-16-16c0-57.76 8.192-103.712 15.328-137.376l9.504-44.736-42.272 6.016c-19.36-1.6-125.888-14.304-138.72-17.664-1.856-0.896-4.224-5.76-3.456-10.272l21.216-191.232c1.184-7.136 9.312-17.248 14.176-19.008 4.192-1.568 8.128-3.168 12.064-4.672 17.408-7.008 32.48-13.056 80.192-13.056 61.248 0 131.776 24.096 148.256 36.672 4.992 3.84 11.712 18.048 11.712 27.328v159.264c-0.032 0.832-1.28 20.768-22.624 42.112-29.216 29.216-73.376 73.376-73.376 166.624zM576 448c0 17.664-14.336 32-32 32s-32-14.336-32-32v-192c0-17.664 14.336-32 32-32s32 14.336 32 32v192z"></path>
</svg>
