<?xml version="1.0" encoding="utf-8"?>
<!-- Generated by IcoMoon.io -->
<!DOCTYPE svg PUBLIC "-//W3C//DTD SVG 1.1//EN" "http://www.w3.org/Graphics/SVG/1.1/DTD/svg11.dtd">
<svg version="1.1" xmlns="http://www.w3.org/2000/svg" xmlns:xlink="http://www.w3.org/1999/xlink" width="768" height="768" viewBox="0 0 768 768">
<g id="icomoon-ignore">
</g>
<path d="M626.24 277.632c-12.512-4.608-80.384-12.992-124.256-17.92 6.88-40.16 10.016-76.96 10.016-115.712 0-44.128-35.904-80-80-80s-80 35.872-80 80c0 60-21.312 87.616-51.712 118.368-17.536-23.104-45.024-38.368-76.288-38.368-52.928 0-96 43.072-96 96v192c0 52.928 43.072 96 96 96 24.16 0 46.016-9.28 62.88-24.064 2.048 1.984 3.744 4.512 6.016 6.176 30.72 23.552 117.344 49.888 187.136 49.888 60.128 0 83.456-9.376 104.096-17.696 3.328-1.312 6.624-2.688 10.112-3.936 26.688-9.76 50.432-39.264 55.552-70.4l21.312-191.168c5.536-33.184-14.176-68-44.864-79.168zM224 544c-17.632 0-32-14.336-32-32v-192c0-17.664 14.368-32 32-32s32 14.336 32 32v192c0 17.664-14.368 32-32 32zM586.464 539.2c-1.184 7.168-9.344 17.312-14.176 19.072-4.192 1.568-8.128 3.168-12.032 4.672-17.44 7.008-32.512 13.056-80.256 13.056-61.248 0-131.776-24.096-148.224-36.672-5.056-3.84-11.776-18.048-11.776-27.328v-159.36c0.096-1.504 1.632-20.992 22.624-41.984 29.216-29.248 73.376-73.408 73.376-166.656 0-8.8 7.2-16 16-16s16 7.2 16 16c0 45.024-4.672 87.36-15.328 137.376l-9.504 44.672 42.272-6.016c19.296 1.6 125.856 14.304 138.688 17.6 1.856 0.96 4.224 5.856 3.552 10.336l-21.216 191.232z"></path>
</svg>
